<?xml version="1.0" encoding="utf-8"?>
<!-- Generator: Adobe Illustrator 16.0.0, SVG Export Plug-In . SVG Version: 6.00 Build 0)  -->
<!DOCTYPE svg PUBLIC "-//W3C//DTD SVG 1.1//EN" "http://www.w3.org/Graphics/SVG/1.1/DTD/svg11.dtd">
<svg version="1.1" id="Layer_1" xmlns="http://www.w3.org/2000/svg" xmlns:xlink="http://www.w3.org/1999/xlink" x="0px" y="0px"
	 width="124px" height="124px" viewBox="0 0 124 124" enable-background="new 0 0 124 124" xml:space="preserve">
<g>
	<g>
		<path fill="#FFFFFF" d="M41.832,96.333c-1.657,0-3-1.343-3-3V30.667c0-1.657,1.343-3,3-3s3,1.343,3,3v62.666
			C44.832,94.99,43.489,96.333,41.832,96.333z"/>
	</g>
	<g>
		<path fill="#FFFFFF" d="M82.166,96.333c-1.657,0-3-1.343-3-3V30.667c0-1.657,1.343-3,3-3s3,1.343,3,3v62.666
			C85.166,94.99,83.823,96.333,82.166,96.333z"/>
	</g>
	<g>
		<g>
			<path fill="#FFFFFF" d="M42.503,60.018c-1.364,0-2.598-0.937-2.92-2.322c-0.375-1.614,0.63-3.226,2.244-3.601l39.255-9.113
				c1.615-0.375,3.227,0.63,3.601,2.244c0.375,1.614-0.63,3.226-2.243,3.601L43.184,59.94
				C42.956,59.993,42.728,60.018,42.503,60.018z"/>
		</g>
		<g>
			<path fill="#FFFFFF" d="M42.693,78.974c-1.364,0-2.598-0.937-2.92-2.322c-0.375-1.614,0.63-3.227,2.244-3.601l38.955-9.043
				c1.616-0.38,3.227,0.629,3.601,2.243c0.375,1.614-0.63,3.227-2.243,3.601l-38.956,9.043
				C43.146,78.948,42.917,78.974,42.693,78.974z"/>
		</g>
	</g>
</g>
<g>
	<path fill="#FFFFFF" d="M62,124C27.813,124,0,96.187,0,62C0,27.813,27.813,0,62,0c34.187,0,62,27.813,62,62
		C124,96.187,96.187,124,62,124z M62,6C31.122,6,6,31.122,6,62c0,30.879,25.122,56,56,56c30.879,0,56-25.121,56-56
		C118,31.122,92.879,6,62,6z"/>
</g>
</svg>
